<?xml version="1.0" standalone="no"?>
<!DOCTYPE svg PUBLIC "-//W3C//DTD SVG 20010904//EN"
 "http://www.w3.org/TR/2001/REC-SVG-20010904/DTD/svg10.dtd">
<svg version="1.0" xmlns="http://www.w3.org/2000/svg"
 width="50.000000pt" height="50.000000pt" viewBox="0 0 50.000000 50.000000"
 preserveAspectRatio="xMidYMid meet">

<g transform="translate(0.000000,50.000000) scale(0.100000,-0.100000)"
fill="#000000" stroke="none">
<path d="M180 393 c-42 -38 -50 -90 -21 -138 l21 -36 -35 -30 c-19 -17 -37
-40 -40 -52 -4 -12 -9 -30 -11 -39 -4 -13 0 -18 15 -18 16 0 21 6 21 24 0 14
11 37 24 52 l23 28 28 -22 c35 -28 55 -28 90 0 l28 22 23 -28 c13 -15 24 -38
24 -52 0 -17 6 -24 19 -24 17 0 18 4 9 40 -7 25 -24 52 -44 70 l-34 29 21 36
c44 74 -7 165 -91 165 -29 0 -48 -7 -70 -27z m119 -20 c54 -46 22 -136 -49
-136 -46 0 -84 44 -76 87 7 38 39 66 76 66 15 0 37 -8 49 -17z m-19 -182 c0
-13 -27 -21 -45 -15 -25 10 -17 24 15 24 17 0 30 -4 30 -9z"/>
</g>
</svg>
