<?xml version="1.0" standalone="no"?>
<!DOCTYPE svg PUBLIC "-//W3C//DTD SVG 20010904//EN"
 "http://www.w3.org/TR/2001/REC-SVG-20010904/DTD/svg10.dtd">
<svg version="1.0" xmlns="http://www.w3.org/2000/svg"
 width="50.000000pt" height="50.000000pt" viewBox="0 0 50.000000 50.000000"
 preserveAspectRatio="xMidYMid meet">

<g transform="translate(0.000000,50.000000) scale(0.100000,-0.100000)"
fill="#000000" stroke="none">
<path d="M133 450 c-155 -89 -152 -320 6 -402 156 -82 330 16 339 191 3 57 0
73 -25 121 -22 43 -41 62 -83 88 -46 27 -63 32 -120 32 -54 0 -74 -5 -117 -30z
m182 9 c53 -15 129 -91 144 -144 15 -54 14 -84 -4 -136 -16 -46 -79 -119 -102
-119 -21 0 -15 27 11 43 56 37 85 125 66 196 -10 40 -69 119 -70 94 0 -6 5
-15 10 -18 21 -13 50 -86 50 -125 0 -54 -44 -140 -72 -140 -17 0 -8 77 12 95
23 21 24 27 9 95 l-11 50 -43 0 c-24 0 -46 -4 -49 -9 -3 -4 -9 -34 -12 -66 -6
-52 -5 -59 16 -75 20 -15 22 -22 15 -68 -6 -49 -9 -52 -36 -52 l-29 0 0 135
c0 126 -1 135 -19 135 -64 0 -109 -142 -61 -190 20 -20 27 -50 12 -50 -12 0
-37 30 -56 67 -52 104 31 242 147 243 20 0 37 5 37 10 0 26 -106 0 -150 -37
-86 -72 -90 -193 -9 -274 22 -22 39 -48 37 -57 -3 -13 -13 -7 -50 26 -97 90
-103 216 -15 309 63 66 135 86 222 62z m-115 -214 c0 -52 -4 -95 -8 -95 -5 0
-20 9 -33 21 -20 17 -21 22 -9 30 13 8 13 10 0 19 -13 9 -13 11 0 20 13 9 13
11 0 21 -11 8 -12 12 -2 16 6 2 12 13 12 23 0 15 22 38 38 40 1 0 2 -43 2 -95z
m98 37 c3 65 22 73 22 8 0 -62 20 -59 21 3 1 36 2 38 9 17 15 -46 10 -82 -13
-110 l-24 -28 -26 34 c-26 32 -27 35 -15 86 l13 53 6 -55 6 -55 1 47z m31
-204 c1 -28 -3 -38 -14 -38 -11 0 -15 13 -15 53 0 91 27 77 29 -15z m-125 21
c9 -47 7 -59 -9 -59 -11 0 -15 12 -15 45 0 52 14 60 24 14z m76 -55 c0 -11 -8
-14 -27 -12 -39 4 -42 28 -4 28 21 0 31 -5 31 -16z"/>
<path d="M312 418 c5 -15 28 -23 28 -10 0 5 -7 13 -16 16 -10 4 -14 1 -12 -6z"/>
</g>
</svg>
