<?xml version="1.0" standalone="no"?>
<!DOCTYPE svg PUBLIC "-//W3C//DTD SVG 20010904//EN"
 "http://www.w3.org/TR/2001/REC-SVG-20010904/DTD/svg10.dtd">
<svg version="1.0" xmlns="http://www.w3.org/2000/svg"
 width="2488.000000pt" height="2154.000000pt" viewBox="0 0 2488.000000 2154.000000"
 preserveAspectRatio="xMidYMid meet">

<g transform="translate(0.000000,2154.000000) scale(0.100000,-0.100000)"
fill="#000000" stroke="none">
<path d="M12594 17136 c-57 -25 -102 -91 -135 -201 -17 -55 -42 -136 -56 -180
-33 -109 -166 -376 -253 -509 -153 -234 -312 -425 -634 -761 -262 -273 -358
-377 -451 -490 -219 -265 -347 -515 -390 -759 -18 -103 -20 -300 -4 -413 76
-549 496 -1235 1286 -2104 126 -138 172 -175 200 -165 28 11 8 105 -51 246
-115 271 -195 533 -237 775 -29 169 -32 425 -5 559 38 196 102 350 213 516 86
127 173 228 404 466 201 208 268 289 382 458 161 240 241 470 289 826 19 144
16 575 -5 725 -40 279 -94 484 -184 705 -60 148 -80 186 -132 243 -65 72 -159
97 -237 63z"/>
<path d="M14236 15105 c-52 -18 -84 -43 -123 -94 -56 -72 -64 -119 -73 -397
-12 -365 -34 -544 -95 -779 -61 -237 -157 -444 -310 -676 -74 -110 -105 -146
-269 -303 -347 -333 -546 -569 -691 -820 -176 -308 -268 -625 -295 -1027 -17
-258 20 -1395 51 -1539 32 -151 101 -191 184 -107 32 32 51 68 84 152 127 325
331 626 693 1022 153 167 313 320 718 685 446 402 633 600 793 843 172 262
267 516 318 846 19 126 21 171 16 364 -15 637 -227 1232 -582 1635 -94 107
-186 173 -270 195 -72 18 -98 18 -149 0z"/>
<path d="M13933 8509 c-237 -28 -448 -129 -563 -272 -62 -77 -122 -191 -146
-277 -27 -96 -25 -317 4 -422 58 -215 166 -372 478 -698 587 -615 642 -677
714 -795 108 -179 142 -310 144 -550 1 -184 -12 -250 -74 -380 -49 -103 -126
-182 -224 -230 -100 -49 -172 -65 -316 -72 -273 -12 -504 48 -657 173 l-32 25
-35 -74 c-60 -125 -60 -155 3 -234 55 -71 186 -134 376 -182 82 -21 303 -32
424 -21 258 22 429 92 585 239 120 114 187 234 236 424 96 373 38 768 -153
1055 -79 118 -148 199 -343 402 -633 660 -675 708 -757 860 -62 115 -80 189
-75 309 3 82 8 106 36 164 57 123 184 219 347 263 80 22 338 30 447 15 114
-16 247 -55 330 -97 39 -20 76 -33 83 -30 22 8 68 115 69 161 3 153 -288 258
-701 254 -70 -1 -160 -5 -200 -10z"/>
<path d="M15820 8514 c-14 -2 -59 -9 -100 -15 -99 -15 -218 -53 -305 -97 -106
-54 -238 -190 -293 -302 -59 -120 -76 -199 -75 -350 1 -151 22 -241 87 -377
87 -181 134 -237 580 -707 407 -429 455 -482 516 -571 130 -192 180 -360 180
-607 0 -178 -36 -315 -115 -439 -69 -107 -172 -176 -320 -215 -100 -26 -387
-27 -499 0 -145 33 -259 84 -330 146 -31 28 -34 29 -49 12 -22 -25 -64 -123
-72 -170 -7 -46 1 -66 52 -128 42 -52 137 -103 268 -143 140 -43 216 -53 400
-53 346 -1 553 76 744 278 66 70 91 105 131 187 169 352 154 849 -36 1183 -80
140 -175 252 -560 654 -430 450 -510 542 -582 672 -143 259 -99 515 112 656
125 84 241 112 457 112 205 0 366 -33 518 -108 l74 -36 24 30 c33 41 57 123
49 167 -19 100 -215 190 -471 216 -101 10 -328 13 -385 5z"/>
<path d="M19243 8481 c-12 -5 -24 -18 -27 -28 -22 -77 -1048 -3838 -1052
-3861 -5 -25 -2 -30 18 -36 95 -26 259 -13 289 23 8 10 68 227 133 482 65 255
124 488 132 517 l15 52 582 0 582 0 139 -539 139 -539 91 -6 c100 -7 190 4
212 25 12 13 -57 275 -501 1904 -610 2237 -541 1991 -562 2000 -30 11 -167 16
-190 6z m97 -497 c0 -50 104 -541 180 -849 43 -176 131 -520 194 -764 64 -244
116 -448 116 -452 0 -5 -228 -9 -506 -9 -477 0 -505 1 -500 18 3 9 71 271 152
582 148 568 160 616 235 945 75 330 88 389 100 477 6 48 16 85 20 82 5 -3 9
-16 9 -30z"/>
<path d="M4417 8448 l-28 -10 4 -1511 c4 -1580 4 -1604 47 -1792 40 -176 148
-349 283 -451 268 -202 733 -246 1252 -118 130 32 248 71 308 101 l47 23 0
1886 0 1886 -137 -4 c-76 -1 -144 -7 -150 -11 -10 -7 -13 -373 -13 -1778 l0
-1769 -27 -11 c-75 -28 -239 -70 -338 -86 -153 -24 -385 -24 -488 0 -277 65
-425 262 -469 622 -7 59 -12 590 -15 1563 l-4 1472 -122 -1 c-67 0 -135 -5
-150 -11z"/>
<path d="M6747 8442 c-16 -17 -17 -167 -17 -1957 l0 -1938 129 5 c92 3 135 9
147 19 16 13 17 104 11 1434 -4 781 -10 1518 -13 1638 -5 160 -4 217 5 217 6
0 11 -5 11 -12 0 -6 24 -73 54 -147 30 -75 77 -197 104 -271 28 -74 87 -229
132 -345 45 -115 111 -289 147 -385 98 -267 213 -535 712 -1670 l209 -475 119
0 c87 0 125 4 136 14 16 12 17 163 17 1953 l0 1940 -135 -4 c-93 -2 -138 -7
-147 -16 -11 -11 -12 -273 -10 -1395 1 -760 6 -1494 11 -1632 5 -137 8 -251 6
-253 -1 -2 -15 30 -30 70 -15 40 -75 190 -132 333 -58 143 -130 325 -159 405
-30 80 -86 224 -124 320 -38 96 -110 281 -160 410 -50 129 -241 578 -423 998
l-331 762 -126 0 c-110 0 -129 -2 -143 -18z"/>
<path d="M9102 8445 c-18 -8 -37 -26 -42 -40 -7 -17 -10 -699 -10 -1942 l0
-1916 133 5 c72 3 140 9 150 13 16 7 17 109 17 1951 l0 1944 -107 0 c-70 -1
-119 -6 -141 -15z"/>
<path d="M9901 8434 l-21 -27 0 -1929 0 -1930 135 4 c93 2 138 7 147 16 10 10
14 207 16 997 l2 984 476 3 c458 3 476 4 490 22 10 15 14 52 14 143 l0 123
-490 0 -490 0 0 675 0 675 523 0 c287 0 532 3 544 6 30 8 34 23 40 152 l6 112
-686 0 -686 0 -20 -26z"/>
<path d="M11676 8435 c-15 -22 -16 -195 -16 -1955 l0 -1930 680 2 c540 2 682
6 692 16 9 9 14 53 16 142 l4 130 -551 0 -551 0 0 855 0 855 468 0 c407 0 470
2 490 16 21 14 22 22 22 140 l0 124 -490 0 -490 0 0 675 0 675 533 0 c445 0
536 2 553 14 17 13 19 30 23 140 l3 126 -685 0 -685 0 -16 -25z"/>
<path d="M17018 8450 c-17 -10 -18 -114 -18 -1955 l0 -1945 98 0 c107 1 170
11 183 32 5 7 9 374 9 816 l0 802 164 0 c362 0 561 46 751 172 275 184 416
530 415 1022 -1 508 -183 862 -509 989 -165 64 -215 70 -666 74 -279 2 -416 0
-427 -7z m882 -297 c214 -79 328 -219 370 -453 18 -97 14 -443 -5 -575 -49
-328 -187 -524 -425 -600 -44 -15 -103 -19 -302 -23 l-248 -4 0 842 0 842 278
-4 c249 -4 283 -6 332 -25z"/>
</g>
</svg>
